<svg width="28" height="25" viewBox="0 0 28 25" fill="none" xmlns="http://www.w3.org/2000/svg">
<path id="Telegram" fill-rule="evenodd" clip-rule="evenodd" d="M21.255 23.9671C22.9325 24.701 23.5616 23.1633 23.5616 23.1633L28 0.866361C27.9651 -0.636408 25.9381 0.272243 25.9381 0.272243L1.08994 10.0228C1.08994 10.0228 -0.0982929 10.4421 0.00655147 11.1761C0.111396 11.91 1.055 12.2595 1.055 12.2595L7.31071 14.3563C7.31071 14.3563 9.19791 20.5422 9.58234 21.7304C9.93182 22.8837 10.2464 22.9186 10.2464 22.9186C10.5958 23.0584 10.9104 22.8138 10.9104 22.8138L14.9643 19.1442L21.255 23.9671ZM22.3384 4.81546C22.3384 4.81546 23.2121 4.29124 23.1772 4.81546C23.1772 4.81546 23.317 4.88535 22.8626 5.37463C22.4433 5.79401 12.5529 14.6708 11.2249 15.8591C11.1201 15.929 11.0502 16.0338 11.0502 16.1736L10.6657 19.4587C10.5958 19.8082 10.1415 19.8432 10.0367 19.5286L8.39411 14.1466C8.32421 13.9369 8.39411 13.6923 8.6038 13.5525L22.3384 4.81546Z" fill="#12C0DD"/>
</svg>
