<svg width="32" height="20" viewBox="0 0 32 20" fill="none" xmlns="http://www.w3.org/2000/svg">
<path id="Vkontakte (VK)" fill-rule="evenodd" clip-rule="evenodd" d="M31.2658 1.86737C31.4884 1.12569 31.2658 0.580566 30.2071 0.580566H26.7062C25.816 0.580566 25.4059 1.05143 25.1834 1.5708C25.1834 1.5708 23.403 5.91006 20.8809 8.72872C20.0649 9.54466 19.6941 9.80397 19.249 9.80397C19.0264 9.80397 18.7044 9.54466 18.7044 8.80299V1.86737C18.7044 0.97716 18.4461 0.580566 17.7041 0.580566H12.2028C11.6467 0.580566 11.3121 0.993663 11.3121 1.38525C11.3121 2.2292 12.5729 2.42375 12.703 4.7973V9.95275C12.703 11.083 12.4989 11.2881 12.0538 11.2881C10.867 11.2881 7.98036 6.92905 6.26796 1.94163C5.93238 0.972158 5.59581 0.580566 4.7011 0.580566H1.20028C0.200047 0.580566 0 1.05143 0 1.5708C0 2.49801 1.18703 7.09709 5.52629 13.1795C8.41947 17.333 12.4949 19.585 16.2038 19.585C18.4293 19.585 18.7044 19.0849 18.7044 18.2234V15.084C18.7044 14.0837 18.9152 13.8842 19.6196 13.8842C20.1392 13.8842 21.0292 14.1437 23.1064 16.1465C25.4799 18.5198 25.871 19.585 27.2064 19.585H30.7072C31.7074 19.585 32.2075 19.0849 31.919 18.0979C31.6034 17.1142 30.4701 15.6873 28.9663 13.9954C28.1503 13.031 26.9263 11.9925 26.5557 11.4734C26.0363 10.8057 26.1846 10.5091 26.5557 9.916C26.5557 9.916 30.8207 3.90759 31.2658 1.86762V1.86737Z" fill="#0077FF"/>
</svg>
