<svg width="30" height="22" viewBox="0 0 30 22" fill="none" xmlns="http://www.w3.org/2000/svg">
<path fill-rule="evenodd" clip-rule="evenodd" d="M26.7379 1.22282C28.0229 1.56879 29.0361 2.58196 29.3821 3.86696C30.0246 6.21457 29.9999 11.1075 29.9999 11.1075C29.9999 11.1075 29.9999 15.9756 29.3821 18.3232C29.0361 19.6082 28.0229 20.6214 26.7379 20.9674C24.3903 21.5852 14.9999 21.5852 14.9999 21.5852C14.9999 21.5852 5.63424 21.5852 3.26193 20.9427C1.97693 20.5967 0.963752 19.5835 0.61779 18.2985C0 15.9756 0 11.0827 0 11.0827C0 11.0827 0 6.21457 0.61779 3.86696C0.963752 2.58196 2.00164 1.54407 3.26193 1.19811C5.60953 0.580322 14.9999 0.580322 14.9999 0.580322C14.9999 0.580322 24.3903 0.580322 26.7379 1.22282ZM19.8187 11.0827L12.0098 15.5803V6.58524L19.8187 11.0827Z" fill="#F12509"/>
</svg>
