<?xml version="1.0" standalone="no"?>
<!DOCTYPE svg PUBLIC "-//W3C//DTD SVG 20010904//EN"
 "http://www.w3.org/TR/2001/REC-SVG-20010904/DTD/svg10.dtd">
<svg version="1.0" xmlns="http://www.w3.org/2000/svg"
 width="120.000000pt" height="120.000000pt" viewBox="0 0 120.000000 120.000000"
 preserveAspectRatio="xMidYMid meet">
<metadata>
Created by potrace 1.14, written by Peter Selinger 2001-2017
</metadata>
<g transform="translate(0.000000,120.000000) scale(0.100000,-0.100000)"
fill="#000000" stroke="none">
<path d="M760 634 c-45 -20 -86 -59 -113 -109 -21 -37 -22 -56 -25 -282 l-3
-243 80 0 81 0 0 110 0 110 75 0 75 0 0 65 0 65 -75 0 -75 0 0 50 c0 41 5 56
25 75 27 28 62 32 91 10 28 -21 47 -18 106 16 29 17 54 32 56 34 9 8 -65 76
-102 94 -51 25 -144 27 -196 5z"/>
<path d="M330 296 c0 -68 14 -76 131 -76 l99 0 0 60 0 60 -115 0 -115 0 0 -44z"/>
</g>
</svg>
