<svg width="31" height="30" viewBox="0 0 31 30" fill="none" xmlns="http://www.w3.org/2000/svg">
<g id="Instagram">
<path id="Vector" d="M10.5018 15C10.5018 12.2387 12.7397 9.9996 15.501 9.9996C18.2623 9.9996 20.5014 12.2387 20.5014 15C20.5014 17.7613 18.2623 20.0004 15.501 20.0004C12.7397 20.0004 10.5018 17.7613 10.5018 15ZM7.79866 15C7.79866 19.254 11.247 22.7023 15.501 22.7023C19.755 22.7023 23.2033 19.254 23.2033 15C23.2033 10.746 19.755 7.29768 15.501 7.29768C11.247 7.29768 7.79866 10.746 7.79866 15ZM21.7082 6.99228C21.7081 7.34829 21.8135 7.69634 22.0112 7.99243C22.2088 8.28852 22.4899 8.51934 22.8187 8.65571C23.1476 8.79208 23.5095 8.82787 23.8587 8.75855C24.2079 8.68924 24.5287 8.51793 24.7805 8.2663C25.0323 8.01467 25.2039 7.69401 25.2735 7.34487C25.3431 6.99573 25.3076 6.6338 25.1715 6.30483C25.0354 5.97587 24.8048 5.69466 24.5088 5.49675C24.2129 5.29885 23.8649 5.19314 23.5089 5.193H23.5082C23.031 5.19322 22.5734 5.38284 22.2359 5.7202C21.8984 6.05756 21.7086 6.51508 21.7082 6.99228ZM9.44098 27.2096C7.97854 27.143 7.18366 26.8994 6.65542 26.6936C5.9551 26.421 5.45542 26.0963 4.93006 25.5716C4.4047 25.047 4.0795 24.5478 3.80806 23.8475C3.60214 23.3195 3.35854 22.5244 3.29206 21.0619C3.21934 19.4808 3.20482 19.0058 3.20482 15.0001C3.20482 10.9944 3.22054 10.5208 3.29206 8.93832C3.35866 7.47588 3.60406 6.68232 3.80806 6.15276C4.0807 5.45244 4.40542 4.95276 4.93006 4.4274C5.4547 3.90204 5.9539 3.57684 6.65542 3.3054C7.18342 3.09948 7.97854 2.85588 9.44098 2.7894C11.0221 2.71668 11.4971 2.70216 15.501 2.70216C19.5049 2.70216 19.9803 2.71788 21.5628 2.7894C23.0252 2.856 23.8188 3.1014 24.3483 3.3054C25.0487 3.57684 25.5483 3.90276 26.0737 4.4274C26.5991 4.95204 26.9231 5.45244 27.1957 6.15276C27.4016 6.68076 27.6452 7.47588 27.7117 8.93832C27.7844 10.5208 27.7989 10.9944 27.7989 15.0001C27.7989 19.0058 27.7844 19.4795 27.7117 21.0619C27.6451 22.5244 27.4003 23.3192 27.1957 23.8475C26.9231 24.5478 26.5983 25.0475 26.0737 25.5716C25.5491 26.0958 25.0487 26.421 24.3483 26.6936C23.8203 26.8996 23.0252 27.1432 21.5628 27.2096C19.9817 27.2824 19.5067 27.2969 15.501 27.2969C11.4953 27.2969 11.0216 27.2824 9.44098 27.2096ZM9.31678 0.09084C7.71994 0.16356 6.62878 0.41676 5.67586 0.78756C4.68898 1.17048 3.85354 1.6842 3.0187 2.51772C2.18386 3.35124 1.67146 4.188 1.28854 5.17488C0.917737 6.1284 0.664537 7.21896 0.591817 8.8158C0.517897 10.4152 0.500977 10.9265 0.500977 15C0.500977 19.0735 0.517897 19.5848 0.591817 21.1842C0.664537 22.7812 0.917737 23.8716 1.28854 24.8251C1.67146 25.8114 2.18398 26.6491 3.0187 27.4823C3.85342 28.3154 4.68898 28.8284 5.67586 29.2124C6.63058 29.5832 7.71994 29.8364 9.31678 29.9092C10.917 29.9819 11.4275 30 15.501 30C19.5745 30 20.0858 29.9831 21.6852 29.9092C23.2821 29.8364 24.3726 29.5832 25.3261 29.2124C26.3124 28.8284 27.1484 28.3158 27.9833 27.4823C28.8181 26.6488 29.3294 25.8114 29.7134 24.8251C30.0842 23.8716 30.3386 22.781 30.4101 21.1842C30.4829 19.5836 30.4998 19.0735 30.4998 15C30.4998 10.9265 30.4829 10.4152 30.4101 8.8158C30.3374 7.21884 30.0842 6.1278 29.7134 5.17488C29.3294 4.1886 28.8168 3.35256 27.9833 2.51772C27.1497 1.68288 26.3124 1.17048 25.3273 0.78756C24.3726 0.41676 23.282 0.16236 21.6864 0.09084C20.087 0.01812 19.5757 0 15.5022 0C11.4287 0 10.917 0.01692 9.31678 0.09084Z" fill="#2A2F36"/>
</g>
</svg>
