<svg width="270" height="52" viewBox="0 0 270 52" fill="none" xmlns="http://www.w3.org/2000/svg">
<g clip-path="url(#clip0_64_5363)">
<path d="M30.5504 32.276C30.5411 31.4885 30.7802 30.718 31.2339 30.0734C31.6876 29.4288 32.3329 28.9428 33.0786 28.6841C33.6969 28.4931 34.3544 28.4667 34.9861 28.6074C35.6177 28.7482 36.2015 29.0513 36.6794 29.4866C36.9065 29.7135 37.2026 29.8591 37.5213 29.9005C37.8401 29.942 38.1637 29.8771 38.4415 29.7158L43 27.0792C41.8809 25.1452 40.154 23.633 38.0866 22.7766C36.0192 21.9202 33.7265 21.7673 31.5633 22.3416C29.4 22.9159 27.4867 24.1854 26.1195 25.9536C24.7523 27.7218 24.0074 29.8901 24 32.1232V51H30.5121V40.8356H37.5222V35.4094H30.5504V32.276Z" fill="#363C47"/>
<path d="M20.9605 41H13.0949C12.8193 41.0014 12.5462 40.9537 12.2914 40.8598C12.0365 40.7658 11.8049 40.6274 11.6101 40.4526C11.4153 40.2778 11.261 40.0701 11.1563 39.8414C11.0516 39.6128 10.9985 39.3678 11 39.1205V36H21V41H20.9605Z" fill="#363C47"/>
<path d="M45.3369 8.81622L22.9807 0L0.663143 8.81622C0.467243 8.89386 0.299447 9.0272 0.181289 9.19912C0.0631301 9.37104 0 9.57369 0 9.78108C0 9.98847 0.0631301 10.1911 0.181289 10.363C0.299447 10.535 0.467243 10.6683 0.663143 10.7459L5.86673 12.7892V22.627L6.59908 23.3838C7.02308 23.8757 11.1859 28 20.7451 28V22.627C15.5415 22.627 12.6121 21.1514 11.3401 20.3189V14.9459L23.0193 19.5622L45.3369 10.7459C45.5328 10.6683 45.7006 10.535 45.8187 10.363C45.9369 10.1911 46 9.98847 46 9.78108C46 9.57369 45.9369 9.37104 45.8187 9.19912C45.7006 9.0272 45.5328 8.89386 45.3369 8.81622ZM22.9807 13.773L12.8819 9.76216L22.9807 5.78919L33.0795 9.76216L22.9807 13.773Z" fill="#12C0DD"/>
<path d="M44 50.9619V30.4241H47.7437C48.0056 30.4246 48.2669 30.4501 48.5237 30.5003C48.715 30.5532 48.8985 30.63 49.0696 30.7289C49.2165 30.8488 49.3248 31.0076 49.3816 31.1861C49.4746 31.4063 49.5401 31.6366 49.5766 31.872L49.9276 33.7772C50.6007 32.7002 51.4894 31.7671 52.5404 31.0337C53.4499 30.3627 54.5595 30.0013 55.6992 30.0049C56.5249 29.9616 57.3397 30.2045 58 30.6908L57.1421 35.2251C57.1317 35.3359 57.0987 35.4435 57.0451 35.5417C56.9916 35.6398 56.9184 35.7265 56.8301 35.7967C56.6308 35.9138 56.399 35.9671 56.1671 35.9491C55.8929 35.9391 55.6194 35.9136 55.3482 35.8729C54.9624 35.8042 54.5699 35.7786 54.1783 35.7967C52.5404 35.7967 51.2145 36.6731 50.2785 38.3877V51H44V50.9619Z" fill="#363C47"/>
<path d="M69.5385 31.002C70.9911 30.9786 72.4356 31.2218 73.7992 31.7195C75.0341 32.1794 76.1607 32.8864 77.1088 33.7966C78.058 34.7195 78.786 35.8424 79.2391 37.0822C80.2536 39.903 80.2536 42.9853 79.2391 45.8061C78.7814 47.0547 78.0543 48.189 77.1088 49.1295C76.1691 50.0594 75.0409 50.7803 73.7992 51.2443C72.438 51.7549 70.9935 52.011 69.5385 51.9996C68.0711 52.011 66.6141 51.7549 65.2397 51.2443C63.998 50.7803 62.8698 50.0594 61.9301 49.1295C60.9854 48.181 60.2473 47.0498 59.7617 45.8061C59.2442 44.4033 58.9865 42.9191 59.0009 41.4253C58.9829 39.9434 59.2409 38.471 59.7617 37.0822C60.2285 35.8401 60.9694 34.7175 61.9301 33.7966C62.8782 32.8864 64.0048 32.1794 65.2397 31.7195C66.6157 31.2186 68.0732 30.9753 69.5385 31.002ZM69.5385 47.4678C70.946 47.4678 71.9732 46.9768 72.6579 45.9949C73.3427 45.013 73.647 43.5024 73.647 41.5008C73.647 39.4992 73.3046 37.9886 72.6579 37.0067C72.0112 36.0248 70.946 35.5338 69.5385 35.5338C68.1309 35.5338 67.0277 36.0248 66.343 37.0067C65.6582 37.9886 65.3158 39.4992 65.3158 41.5008C65.3158 43.5024 65.6582 45.013 66.343 45.9949C67.0277 46.9768 68.0548 47.4678 69.5385 47.4678Z" fill="#363C47"/>
<path d="M84 52V31.3464H87.9013C88.2475 31.3294 88.5898 31.4236 88.8766 31.6146C89.1538 31.7901 89.3498 32.0652 89.4228 32.381L89.7739 33.5689C90.1621 33.1927 90.5795 32.8468 91.0224 32.5343C91.4625 32.2214 91.9329 31.9519 92.4268 31.7296C92.943 31.5051 93.4782 31.3256 94.0264 31.1931C94.6426 31.0686 95.2699 31.0044 95.899 31.0015C96.9432 30.9804 97.9802 31.1763 98.942 31.5763C99.8125 31.9332 100.577 32.4999 101.166 33.224C101.794 33.9509 102.259 34.7995 102.531 35.7147C102.853 36.7317 103.011 37.7919 102.999 38.8568V52H96.7183V38.8568C96.7663 38.0095 96.5186 37.1714 96.016 36.4811C95.7566 36.1884 95.4308 35.9597 95.0649 35.8133C94.6989 35.6668 94.3032 35.6068 93.9093 35.6381C93.236 35.641 92.5711 35.7847 91.9587 36.0596C91.3183 36.3704 90.7269 36.7705 90.2031 37.2474V51.9617H84V52Z" fill="#363C47"/>
<path d="M114.103 51.9991C113.2 52.0089 112.302 51.8666 111.448 51.5785C110.716 51.3314 110.059 50.911 109.534 50.3547C109.01 49.8055 108.611 49.1538 108.362 48.4426C108.085 47.6427 107.953 46.8014 107.972 45.9568V35.2872H106.176C105.874 35.2846 105.583 35.1761 105.355 34.9813C105.231 34.8632 105.135 34.7197 105.075 34.561C105.014 34.4023 104.99 34.2324 105.004 34.0634V31.6542L108.362 31.0041L109.612 25.9561C109.768 25.3059 110.237 25 110.979 25H114.259V31.0423H119.375V35.249H114.259V45.4979C114.244 45.9197 114.367 46.3351 114.611 46.6834C114.73 46.8345 114.884 46.9551 115.061 47.035C115.238 47.1149 115.432 47.1518 115.626 47.1423C115.824 47.141 116.021 47.1153 116.212 47.0659C116.345 47.0215 116.475 46.9705 116.602 46.9129C116.703 46.8542 116.807 46.8031 116.915 46.7599C117.026 46.7123 117.145 46.6863 117.266 46.6834C117.431 46.6754 117.594 46.7154 117.735 46.7982C117.88 46.9136 118 47.0567 118.086 47.2188L120 50.1252C119.178 50.7285 118.252 51.1818 117.266 51.4637C116.255 51.8328 115.182 52.0143 114.103 51.9991Z" fill="#363C47"/>
<path d="M132.51 31.0005C133.82 30.9919 135.121 31.2094 136.352 31.6426C137.472 32.0277 138.49 32.6467 139.332 33.4555C140.193 34.2943 140.861 35.2979 141.293 36.4014C141.781 37.6566 142.021 38.989 141.999 40.3293C141.997 40.7082 141.971 41.0866 141.92 41.4623C141.903 41.7044 141.822 41.9383 141.685 42.1421C141.594 42.306 141.438 42.4282 141.254 42.482C141.028 42.5626 140.788 42.601 140.548 42.5953H128.353C128.549 44.2949 129.098 45.5413 129.961 46.2966C130.894 47.0743 132.1 47.4796 133.333 47.4297C133.972 47.4516 134.609 47.3621 135.215 47.1653C135.697 47.0036 136.168 46.8144 136.627 46.5988C137.058 46.3722 137.411 46.1833 137.764 46.0323C138.099 45.8524 138.478 45.7612 138.862 45.7679C139.082 45.7551 139.303 45.797 139.502 45.8896C139.701 45.9821 139.872 46.1223 139.999 46.2966L141.842 48.4872C141.224 49.1701 140.512 49.7675 139.724 50.2623C138.997 50.698 138.221 51.0528 137.411 51.3198C136.633 51.5674 135.832 51.7444 135.019 51.8485C134.266 51.9527 133.506 52.0032 132.745 51.9996C131.329 52.0107 129.922 51.7806 128.589 51.3198C127.313 50.8652 126.151 50.1575 125.177 49.2425C124.16 48.2691 123.371 47.0972 122.864 45.8056C122.272 44.2848 121.979 42.671 122.001 41.0469C121.993 39.7322 122.232 38.427 122.707 37.1945C123.167 35.9999 123.874 34.9077 124.785 33.9842C125.717 33.0454 126.837 32.3 128.079 31.7937C129.489 31.2558 130.993 30.9864 132.51 31.0005ZM132.627 35.1928C132.112 35.1648 131.597 35.2373 131.112 35.406C130.626 35.5748 130.182 35.8363 129.804 36.1748C129.063 36.9761 128.597 37.9788 128.471 39.0451H136.352C136.348 38.5733 136.282 38.1038 136.156 37.6477C136.028 37.1989 135.815 36.7765 135.529 36.4014C135.232 36.0241 134.841 35.7252 134.392 35.5327C133.839 35.2892 133.235 35.1728 132.627 35.1928Z" fill="#363C47"/>
<path d="M145 52V31.3464H148.901C149.247 31.3294 149.59 31.4236 149.877 31.6146C150.154 31.7901 150.35 32.0652 150.423 32.381L150.774 33.5689C151.162 33.1927 151.58 32.8468 152.022 32.5343C152.462 32.2214 152.933 31.9519 153.427 31.7296C153.943 31.5051 154.478 31.3256 155.026 31.1931C155.643 31.0686 156.27 31.0044 156.899 31.0015C157.943 30.9804 158.98 31.1763 159.942 31.5763C160.813 31.9332 161.577 32.4999 162.166 33.224C162.794 33.9509 163.259 34.7995 163.531 35.7147C163.853 36.7317 164.011 37.7919 163.999 38.8568V52H157.718V38.8568C157.766 38.0095 157.519 37.1714 157.016 36.4811C156.757 36.1884 156.431 35.9597 156.065 35.8133C155.699 35.6668 155.303 35.6068 154.909 35.6381C154.236 35.641 153.571 35.7847 152.959 36.0596C152.318 36.3704 151.727 36.7705 151.203 37.2474V51.9617H145V52Z" fill="#363C47"/>
<path d="M183.109 51.6923C182.764 51.7092 182.423 51.6154 182.137 51.4251C181.86 51.2504 181.665 50.9763 181.592 50.6618L181.125 49.097C180.713 49.5213 180.271 49.9166 179.802 50.2802C179.333 50.621 178.839 50.9271 178.324 51.1961C177.781 51.4679 177.206 51.673 176.612 51.8068C175.961 51.9496 175.294 52.0137 174.628 51.9976C173.57 52.0114 172.526 51.762 171.593 51.2724C170.635 50.7806 169.809 50.0746 169.181 49.2115C168.458 48.2029 167.919 47.0797 167.585 45.8912C167.175 44.4376 166.979 42.934 167.002 41.4259C166.994 39.976 167.217 38.5338 167.663 37.1514C168.05 35.9166 168.67 34.7643 169.492 33.7548C170.261 32.8114 171.23 32.0431 172.332 31.503C173.471 30.9606 174.723 30.6862 175.989 30.7016C176.919 30.6747 177.845 30.8304 178.713 31.1596C179.448 31.4609 180.131 31.8729 180.736 32.3808V22H187V51.7304H183.109V51.6923ZM176.767 47.3033C177.185 47.3067 177.603 47.2683 178.012 47.1888C178.371 47.1254 178.714 46.9959 179.024 46.8072C179.354 46.6525 179.656 46.4463 179.919 46.1965C180.21 45.9352 180.483 45.6547 180.736 45.3569V36.6171C180.321 36.1335 179.785 35.765 179.18 35.5485C178.631 35.3518 178.052 35.2485 177.468 35.2432C176.916 35.2349 176.37 35.3525 175.873 35.5867C175.367 35.8414 174.927 36.207 174.589 36.6553C174.199 37.2548 173.91 37.912 173.733 38.6017C173.516 39.5408 173.412 40.5013 173.421 41.4641C173.408 42.3853 173.487 43.3056 173.655 44.2119C173.778 44.8402 174.001 45.4455 174.316 46.0057C174.552 46.4359 174.92 46.7829 175.367 46.998C175.806 47.1976 176.284 47.3017 176.767 47.3033Z" fill="#363C47"/>
<path d="M192 51.7319V22H198.252V33.3501C199.02 32.596 199.913 31.9757 200.893 31.5157C201.99 31.0312 203.185 30.7961 204.387 30.8278C205.438 30.8195 206.476 31.0552 207.416 31.5157C208.37 31.9939 209.196 32.688 209.824 33.5412C210.545 34.5372 211.084 35.6494 211.416 36.8277C211.823 38.2707 212.019 39.7634 211.999 41.2608C212.009 42.7128 211.787 44.1574 211.338 45.5409C210.944 46.7738 210.325 47.9262 209.513 48.9421C208.745 49.8867 207.778 50.656 206.679 51.1969C205.542 51.74 204.292 52.0148 203.028 51.9994C202.466 51.9992 201.906 51.9351 201.359 51.8083C200.889 51.6892 200.434 51.5227 199.999 51.3115C199.594 51.0881 199.216 50.8188 198.873 50.509C198.524 50.2032 198.213 49.8593 197.864 49.5154L197.631 50.5472C197.609 50.7192 197.554 50.8853 197.467 51.0361C197.381 51.1869 197.265 51.3195 197.126 51.4262C196.831 51.5912 196.494 51.6707 196.155 51.6554H192V51.7319ZM202.213 35.452C201.796 35.4486 201.379 35.487 200.97 35.5666C200.602 35.6365 200.248 35.7656 199.922 35.9488C199.592 36.1036 199.291 36.3101 199.029 36.5602C198.738 36.8219 198.465 37.1028 198.213 37.401V46.1524C198.619 46.6447 199.157 47.0154 199.766 47.2224C200.327 47.4228 200.918 47.5262 201.514 47.5281C202.065 47.5366 202.61 47.4188 203.106 47.1842C203.611 46.9292 204.05 46.563 204.387 46.1142C204.777 45.5139 205.065 44.8558 205.242 44.1652C205.46 43.2122 205.564 42.2375 205.552 41.2608C205.565 40.3383 205.487 39.4168 205.319 38.5092C205.196 37.8802 204.974 37.2741 204.659 36.7131C204.424 36.2823 204.057 35.9348 203.611 35.7195C203.17 35.5321 202.693 35.4408 202.213 35.452Z" fill="#12C0DD"/>
<path d="M221 22V52H215V22H221Z" fill="#12C0DD"/>
<path d="M235.538 31.0015C236.991 30.9781 238.436 31.2214 239.799 31.7191C241.034 32.1789 242.161 32.886 243.109 33.7963C244.058 34.7191 244.786 35.842 245.239 37.0819C246.254 39.9027 246.254 42.9851 245.239 45.806C244.781 47.0546 244.054 48.1889 243.109 49.1294C242.169 50.0593 241.041 50.7802 239.799 51.2443C238.438 51.7549 236.993 52.011 235.538 51.9996C234.071 52.011 232.614 51.7549 231.24 51.2443C229.998 50.7802 228.87 50.0593 227.93 49.1294C226.985 48.1809 226.247 47.0497 225.762 45.806C225.244 44.4031 224.986 42.9189 225.001 41.4251C224.983 39.9432 225.241 38.4708 225.762 37.0819C226.228 35.8398 226.969 34.7171 227.93 33.7963C228.878 32.886 230.005 32.1789 231.24 31.7191C232.617 31.2213 234.073 30.9781 235.538 31.0015ZM235.538 47.4677C236.946 47.4677 237.973 46.9767 238.658 45.9948C239.343 45.0129 239.647 43.5022 239.647 41.5006C239.647 39.499 239.305 37.9883 238.658 37.0064C238.011 36.0245 236.946 35.5335 235.538 35.5335C234.131 35.5335 233.028 36.0245 232.343 37.0064C231.658 37.9883 231.316 39.499 231.316 41.5006C231.316 43.5022 231.658 45.0129 232.343 45.9948C233.028 46.9767 234.093 47.4677 235.538 47.4677Z" fill="#12C0DD"/>
<path d="M255.989 22V38.79H256.893C257.189 38.8133 257.487 38.7603 257.759 38.6359C257.983 38.4843 258.176 38.2878 258.324 38.0583L262.203 32.2049C262.398 31.8827 262.67 31.6173 262.994 31.4347C263.361 31.2657 263.76 31.1865 264.162 31.2037H269.736L264.501 38.5974C264.254 38.9319 263.977 39.2414 263.672 39.5217C263.375 39.7868 263.06 40.0312 262.731 40.2533C263.358 40.7457 263.883 41.361 264.275 42.0633L270 51.9986H264.501C264.1 52.0117 263.701 51.9327 263.333 51.7676C262.981 51.5942 262.69 51.3111 262.505 50.9589L258.663 43.6036C258.535 43.3377 258.34 43.1116 258.098 42.949C257.826 42.8246 257.528 42.7716 257.232 42.7949H256.064V51.9986H250V22H255.989Z" fill="#12C0DD"/>
</g>
<defs>
<clipPath id="clip0_64_5363">
<rect width="270" height="52" fill="white"/>
</clipPath>
</defs>
</svg>
