<svg width="17" height="18" viewBox="0 0 17 18" fill="none" xmlns="http://www.w3.org/2000/svg">
<path fill-rule="evenodd" clip-rule="evenodd" d="M2 7.5C2 4.73858 4.23858 2.5 7 2.5C9.76142 2.5 12 4.73858 12 7.5C12 10.2614 9.76142 12.5 7 12.5C4.23858 12.5 2 10.2614 2 7.5ZM7 0.5C3.13401 0.5 0 3.63401 0 7.5C0 11.366 3.13401 14.5 7 14.5C8.57234 14.5 10.0236 13.9816 11.1922 13.1064L15.2929 17.2071C15.6834 17.5976 16.3166 17.5976 16.7071 17.2071C17.0976 16.8166 17.0976 16.1834 16.7071 15.7929L12.6064 11.6922C13.4816 10.5236 14 9.07234 14 7.5C14 3.63401 10.866 0.5 7 0.5Z" fill="#2A2F36"/>
</svg>
